<svg width="16" height="17" viewBox="0 0 16 17" fill="none" xmlns="http://www.w3.org/2000/svg">
<path d="M7.46667 5H16V5C16 6.57094 14.7265 7.84444 13.1556 7.84444H7.46667V5Z" fill="#3A3E46"/>
<path d="M0 6.42222C0 5.63675 0.636751 5 1.42222 5H4.26667C5.05214 5 5.68889 5.63675 5.68889 6.42222V6.42222C5.68889 7.20769 5.05214 7.84444 4.26667 7.84444H1.42222C0.636751 7.84444 0 7.20769 0 6.42222V6.42222Z" fill="#9AA0B3"/>
<path d="M7.46667 9.26666H15.6445V9.26666C15.6445 10.8376 14.371 12.1111 12.8 12.1111H7.46667V9.26666Z" fill="#3A3E46"/>
<rect y="9.26666" width="5.68889" height="2.84444" rx="1.42222" fill="#9AA0B3"/>
</svg>
